Coordinates
version=1
nRows=17
nColumns=24
inDegrees=yes

Units are S.I. units (second, meters, Newtons, ...)
Angles are in degrees.

endheader
time	pelvis_tilt	pelvis_list	pelvis_rotation	pelvis_tx	pelvis_ty	pelvis_tz	hip_flexion_r	hip_adduction_r	hip_rotation_r	knee_angle_r	ankle_angle_r	subtalar_angle_r	mtp_angle_r	hip_flexion_l	hip_adduction_l	hip_rotation_l	knee_angle_l	ankle_angle_l	subtalar_angle_l	mtp_angle_l	lumbar_extension	lumbar_bending	lumbar_rotation
      1.28333333	     -2.35972436	      3.47208694	     -2.45586940	      0.19311613	      1.03127567	      0.29830259	     21.04928374	     -5.06906161	     -4.32834370	    -67.20386272	     -3.88810050	     -0.79505053	      9.35720676	      8.94611926	      7.07591083	      1.32316939	     -5.66166358	      0.76910873	     -8.33457210	      0.46506084	     -3.78519454	     -5.20195994	      2.95602775
      1.28750000	     -2.38467567	      3.29897078	     -2.48279671	      0.19812978	      1.03199574	      0.29806269	     21.54711976	     -4.88550325	     -4.30772918	    -66.73780480	     -3.36566211	     -1.41586458	      9.20340310	      8.53010876	      6.92279458	      1.42959449	     -5.41990463	      0.87294923	     -8.36722716	      0.42492512	     -3.78254771	     -4.97538708	      2.89125474
      1.29166667	     -2.38842005	      3.13072633	     -2.51598152	      0.20313834	      1.03271826	      0.29781102	     22.00426298	     -4.71218802	     -4.29043797	    -66.21081454	     -2.77634253	     -1.98756117	      9.13352767	      8.10293474	      6.77533527	      1.46299162	     -5.19684909	      0.96056021	     -8.40561782	      0.40505526	     -3.79671232	     -4.73572264	      2.82920633
      1.29583333	     -2.37680869	      2.94593599	     -2.55411225	      0.20816709	      1.03347017	      0.29759139	     22.41433510	     -4.50825438	     -4.26815149	    -65.58179483	     -2.38116643	     -2.69535292	      8.95604207	      7.62751300	      6.61228085	      1.59965026	     -4.91347491	      1.03526415	     -8.51253481	      0.35690977	     -3.83030499	     -4.47839801	      2.69220673
      1.30000000	     -2.38339062	      2.76564923	     -2.58863900	      0.21318070	      1.03414486	      0.29735690	     22.82871174	     -4.31183430	     -4.24956406	    -64.90410053	     -1.91187777	     -3.32126862	      8.74662931	      7.18604261	      6.45402714	      1.70555800	     -4.65619119	      1.10197232	     -8.62957716	      0.29751703	     -3.84409225	     -4.21578533	      2.57676644
      1.30416667	     -2.38517066	      2.56669253	     -2.61458393	      0.21815561	      1.03481408	      0.29713370	     23.21217123	     -4.08944557	     -4.23370348	    -64.15105078	     -1.45117012	     -3.91613022	      8.57083042	      6.75145685	      6.27378180	      1.80870867	     -4.42061522	      1.17906384	     -8.70913220	      0.24817353	     -3.88248953	     -3.94459637	      2.48949741
      1.30833333	     -2.39232134	      2.38172065	     -2.64784451	      0.22314389	      1.03541848	      0.29691729	     23.58615111	     -3.88002744	     -4.20928073	    -63.34446600	     -1.01884508	     -4.50853011	      8.36660072	      6.31844581	      6.10914582	      1.90689315	     -4.17526909	      1.25774782	     -8.81166232	      0.19138819	     -3.89171545	     -3.67988665	      2.38966849
      1.31250000	     -2.38681900	      2.20416778	     -2.66860190	      0.22809604	      1.03600717	      0.29669928	     23.92866696	     -3.68144164	     -4.19270681	    -62.49399110	     -0.46812125	     -5.00234226	      5.27049552	      5.87069522	      5.95691650	      2.08000939	     -3.92208044	      1.28054503	     -9.04372883	     -0.68253189	     -3.92071212	     -3.44697357	      2.37600959
      1.31666667	     -2.39842431	      1.99528983	     -2.69008286	      0.23304426	      1.03656618	      0.29649495	     24.25596918	     -3.44026751	     -4.17034745	    -61.54791670	     -0.04838508	     -5.48471741	      5.25376534	      5.47461730	      5.76205578	      2.10599146	     -3.73957586	      1.39995159	     -9.05817412	     -0.68516634	     -3.94772031	     -3.15658868	      2.26386382
      1.32083333	     -2.40885145	      1.79681643	     -2.70673124	      0.23798844	      1.03708302	      0.29630365	     24.56209101	     -3.20839752	     -4.14827998	    -60.54210572	      0.29373350	     -6.00666481	      5.21580053	      5.06650722	      5.57945656	      2.18868085	     -3.53192319	      1.50735801	     -9.11481887	     -0.69176937	     -3.96561289	     -2.88517450	      2.15478680
      1.32500000	     -2.41481242	      1.61383814	     -2.72055609	      0.24291125	      1.03754910	      0.29610477	     24.84869565	     -2.99490310	     -4.12025101	    -59.49172747	      0.63916323	     -6.47505502	      5.16574566	      4.65937958	      5.41522423	      2.27504478	     -3.32995242	      1.59995213	     -9.20047549	     -0.70148407	     -3.99290455	     -2.62993779	      2.06170630
      1.32916667	     -2.42985424	      1.42512459	     -2.72857071	      0.24782408	      1.03797315	      0.29591869	     25.12067820	     -2.77238095	     -4.09258522	    -58.37745858	      0.94038330	     -6.92013716	      5.10058462	      4.26434549	      5.24339390	      2.37671684	     -3.13057797	      1.69007946	     -9.30082147	     -0.71411274	     -4.00715810	     -2.37240471	      1.97057501
      1.33333333	     -2.41639864	      1.25028683	     -2.73464170	      0.25271657	      1.03839329	      0.29573621	     25.34436131	     -2.56658993	     -4.06197103	    -57.21224458	      1.20843235	     -7.34800491	      5.01585414	      3.83881376	      5.08815267	      2.48168690	     -2.92593162	      1.77530284	     -9.41384651	     -0.73080093	     -4.05640312	     -2.13436974	      1.87740019
      1.33750000	     -2.41790944	      1.08692888	     -2.74773649	      0.25759795	      1.03874022	      0.29559865	     25.56879806	     -2.36111927	     -4.01187734	    -55.99757308	      1.40861443	     -7.81253591	      4.83587827	      3.41899440	      4.94286298	      2.62870116	     -2.69525056	      1.82944713	     -9.59942253	     -0.76774655	     -4.10690157	     -1.92092721	      1.74566788
      1.34166667	     -2.40730411	      0.92666614	     -2.73949232	      0.26248627	      1.03907507	      0.29541564	     25.75258551	     -2.17708478	     -3.99528426	    -54.72652826	      1.62015301	     -8.20096315	      4.50393256	      3.00056129	      4.80402932	      2.75208978	     -2.49222891	      1.87126096	     -9.80713496	     -0.83797299	     -4.13577365	     -1.69617004	      1.63128584
      1.34583333	     -2.41902362	      0.77493547	     -2.73108565	      0.26734836	      1.03932268	      0.29526612	     25.94467530	     -1.99230104	     -3.96187993	    -53.40870648	      1.77766183	     -8.57869564	      4.22353847	      2.61949684	      4.66833209	      2.84891175	     -2.31521533	      1.97864370	     -9.89683876	     -0.89479994	     -4.16252778	     -1.49205579	      1.55423352
      1.35000000	     -2.46445107	      0.61460084	     -2.70010126	      0.27220289	      1.03949101	      0.29508499	     26.14666144	     -1.80994454	     -3.95675522	    -52.03594736	      1.92356209	     -8.84684025	      4.12487472	      2.29265660	      4.52153208	      2.94319020	     -2.17569010	      2.11753511	     -9.93583028	     -0.91133354	     -4.15056823	     -1.25920073	      1.51181580
